Run_30002
nRows=4
nColumns=173

# SIMM Motion File Header:
name Run_30002
datacolumns 173
datarows 4
otherdata 1
range 1.41000000 1.44000000
endheader
time	pelvis_tilt	pelvis_list	pelvis_rotation	pelvis_tx	pelvis_ty	pelvis_tz	hip_flexion_r	hip_adduction_r	hip_rotation_r	knee_angle_r	ankle_angle_r	hip_flexion_l	hip_adduction_l	hip_rotation_l	knee_angle_l	ankle_angle_l	lumbar_extension	lumbar_bending	lumbar_rotation	arm_flex_r	arm_add_r	arm_rot_r	elbow_flex_r	pro_sup_r	arm_flex_l	arm_add_l	arm_rot_l	elbow_flex_l	pro_sup_l	subtalar_angle_r	mtp_angle_r	subtalar_angle_l	mtp_angle_l	wrist_flex_r	wrist_dev_r	wrist_flex_l	wrist_dev_l	LASI_tx	LASI_ty	LASI_tz	RASI_tx	RASI_ty	RASI_tz	LPSI_tx	LPSI_ty	LPSI_tz	RPSI_tx	RPSI_ty	RPSI_tz	RTH1_tx	RTH1_ty	RTH1_tz	RTH2_tx	RTH2_ty	RTH2_tz	RTH3_tx	RTH3_ty	RTH3_tz	LTH1_tx	LTH1_ty	LTH1_tz	LTH2_tx	LTH2_ty	LTH2_tz	LTH3_tx	LTH3_ty	LTH3_tz	RTB1_tx	RTB1_ty	RTB1_tz	RTB2_tx	RTB2_ty	RTB2_tz	RTB3_tx	RTB3_ty	RTB3_tz	RLMAL_tx	RLMAL_ty	RLMAL_tz	RMMAL_tx	RMMAL_ty	RMMAL_tz	LTB1_tx	LTB1_ty	LTB1_tz	LTB2_tx	LTB2_ty	LTB2_tz	LTB3_tx	LTB3_ty	LTB3_tz	RCAL_tx	RCAL_ty	RCAL_tz	RTOE_tx	RTOE_ty	RTOE_tz	RMT5_tx	RMT5_ty	RMT5_tz	LCAL_tx	LCAL_ty	LCAL_tz	LTOE_tx	LTOE_ty	LTOE_tz	LMT5_tx	LMT5_ty	LMT5_tz	LACR_tx	LACR_ty	LACR_tz	RACR_tx	RACR_ty	RACR_tz	CLAV_tx	CLAV_ty	CLAV_tz	C7_tx	C7_ty	C7_tz	LPSH_tx	LPSH_ty	LPSH_tz	RUA1_tx	RUA1_ty	RUA1_tz	RUA2_tx	RUA2_ty	RUA2_tz	RUA3_tx	RUA3_ty	RUA3_tz	RLEL_tx	RLEL_ty	RLEL_tz	RMEL_tx	RMEL_ty	RMEL_tz	LUA1_tx	LUA1_ty	LUA1_tz	LUA2_tx	LUA2_ty	LUA2_tz	LUA3_tx	LUA3_ty	LUA3_tz	LLEL_tx	LLEL_ty	LLEL_tz	LMEL_tx	LMEL_ty	LMEL_tz	RFAsuperior_tx	RFAsuperior_ty	RFAsuperior_tz	RFAradius_tx	RFAradius_ty	RFAradius_tz	RFAulna_tx	RFAulna_ty	RFAulna_tz	LFAsuperior_tx	LFAsuperior_ty	LFAsuperior_tz	LFAradius_tx	LFAradius_ty	LFAradius_tz	LFAulna_tx	LFAulna_ty	LFAulna_tz
      1.41000000	     -4.89386266	      1.87544999	      2.21385065	      0.94457484	      1.05158448	     -0.32082003	    -14.49857058	      2.50188759	      4.16292112	    -12.17841888	    -12.00019160	     37.32389219	      8.56337538	      7.31181234	    -56.66281747	      3.69926246	     -2.31686989	      1.05846168	     14.91003155	    -14.15797370	    -15.35675525	      6.07051459	    130.38679382	     94.76511191	    -42.74698778	    -16.77321708	     -5.76968223	    128.22267154	     89.65509719	      0.00000000	      0.00000000	      0.00000000	      0.00000000	      0.00000000	      0.00000000	      0.00000000	      0.00000000	      0.94556542	      1.09494604	     -0.42930741	      0.96360848	      1.07933835	     -0.20260091	      0.78942646	      1.13201931	     -0.35707761	      0.79520597	      1.12645160	     -0.26672411	      0.80923136	      0.83673747	     -0.14954157	      0.85407203	      0.75189454	     -0.18393636	      0.75298761	      0.67845425	     -0.17981425	      0.91318709	      0.88238802	     -0.47900062	      1.03503199	      0.82002308	     -0.47075137	      1.03191384	      0.71090080	     -0.45500837	      0.68944128	      0.43166582	     -0.22762709	      0.62131231	      0.40294361	     -0.18987421	      0.58317378	      0.28034073	     -0.23968953	      0.49054995	      0.20088970	     -0.23015569	      0.52554723	      0.20944134	     -0.30701073	      1.08739527	      0.49439922	     -0.42148274	      0.97060942	      0.42881602	     -0.44300033	      1.00176082	      0.32126219	     -0.40650383	      0.43496862	      0.22142271	     -0.29789285	      0.57641732	      0.06771237	     -0.27861593	      0.51503077	      0.07952707	     -0.20907875	      0.85573212	      0.21306183	     -0.35608948	      1.05987967	      0.12596805	     -0.38963279	      0.99459537	      0.12822337	     -0.45422306	      0.87311237	      1.60190738	     -0.45197578	      0.94766038	      1.57035236	     -0.15514991	      0.99171335	      1.51641589	     -0.29927065	      0.87838287	      1.60392190	     -0.29646696	      0.78951029	      1.57312916	     -0.43424029	      0.93831331	      1.41886904	     -0.06529796	      0.86593362	      1.36201233	     -0.05023449	      0.89198882	      1.30629599	     -0.01656699	      0.92051151	      1.24203347	     -0.00646599	      0.85255589	      1.22742376	     -0.06942193	      0.75301107	      1.52059916	     -0.49190231	      0.68358301	      1.46411203	     -0.45978625	      0.65770841	      1.43568527	     -0.52489703	      0.62508112	      1.36376302	     -0.55431593	      0.61922544	      1.34926578	     -0.46485021	      0.96561026	      1.21607696	     -0.06511555	      1.05848453	      1.32440464	     -0.20614693	      1.07633798	      1.25838720	     -0.20725044	      0.68924953	      1.29218998	     -0.53681356	      0.86128527	      1.31004579	     -0.51035827	      0.84829252	      1.24419417	     -0.52369760
      1.42000000	     -5.20588268	      1.96601839	      2.43083045	      0.94612718	      1.05645186	     -0.32138776	    -15.29499284	      2.36651933	      3.17555499	    -12.21441849	    -14.93591737	     36.28967397	      8.61678250	      8.24059257	    -49.81493482	      3.44947113	     -1.74005931	      0.80165427	     14.70782006	    -14.36226141	    -15.20868243	      7.54579929	    131.27978248	     95.21983640	    -43.77011905	    -15.54434750	     -6.25041628	    128.72501045	     89.42450516	      0.00000000	      0.00000000	      0.00000000	      0.00000000	      0.00000000	      0.00000000	      0.00000000	      0.00000000	      0.94650752	      1.10101553	     -0.42995913	      0.96559691	      1.08413590	     -0.20367145	      0.79189421	      1.13781873	     -0.35720807	      0.79749165	      1.13182520	     -0.26665544	      0.80596594	      0.84325801	     -0.15030237	      0.84927970	      0.75774833	     -0.18299678	      0.74749387	      0.68594496	     -0.18018054	      0.91208946	      0.88722268	     -0.47850676	      1.03224082	      0.82253513	     -0.47056118	      1.02666343	      0.71282130	     -0.45340322	      0.67983342	      0.43986244	     -0.22712036	      0.61099517	      0.41276242	     -0.18936019	      0.57014300	      0.29073526	     -0.23878192	      0.47584260	      0.21413346	     -0.22908619	      0.51128587	      0.22110348	     -0.30548987	      1.09172967	      0.49408397	     -0.42234105	      0.98174625	      0.41773689	     -0.44378750	      1.02280143	      0.31360713	     -0.40646415	      0.42305266	      0.23904344	     -0.29647673	      0.55547927	      0.07180894	     -0.27743317	      0.49331276	      0.09139367	     -0.20858043	      0.88701535	      0.19215773	     -0.35604853	      1.09887048	      0.12453423	     -0.38673394	      1.03431963	      0.11940867	     -0.45161255	      0.87273339	      1.60688393	     -0.45266919	      0.94786863	      1.57608056	     -0.15702183	      0.99166640	      1.52183248	     -0.30061763	      0.87825477	      1.60884230	     -0.29782001	      0.78913943	      1.57885689	     -0.43402183	      0.93952137	      1.42532786	     -0.06705806	      0.86732818	      1.36887503	     -0.05060316	      0.89346991	      1.31273296	     -0.01775644	      0.92192208	      1.24806599	     -0.00801101	      0.85234213	      1.23400837	     -0.06981692	      0.75188903	      1.52664263	     -0.49056376	      0.68400037	      1.47059478	     -0.45617961	      0.65592333	      1.44143539	     -0.51982199	      0.62201824	      1.36891221	     -0.54757123	      0.61834845	      1.35568852	     -0.45790483	      0.96563470	      1.22319610	     -0.06810083	      1.05410004	      1.33405468	     -0.21013907	      1.07237185	      1.26833673	     -0.21222480	      0.68675288	      1.29758524	     -0.53043523	      0.85937308	      1.31649290	     -0.50819023	      0.84640162	      1.25035758	     -0.52003257
      1.43000000	     -5.40946686	      1.77511941	      2.55189881	      0.94732906	      1.06029879	     -0.32144982	    -15.58891652	      2.61147124	      2.40078402	    -13.51984633	    -16.44283934	     34.96701337	      8.20306950	      9.03918604	    -42.84724643	      2.83450601	     -1.33364832	      0.82475270	     14.56137543	    -14.62817266	    -15.11935346	      8.86568820	    131.92220525	     95.35758479	    -44.55589841	    -14.37213009	     -6.65979625	    129.17993380	     89.34532053	      0.00000000	      0.00000000	      0.00000000	      0.00000000	      0.00000000	      0.00000000	      0.00000000	      0.00000000	      0.94742741	      1.10560912	     -0.43002135	      0.96696769	      1.08837332	     -0.20423801	      0.79363893	      1.14200649	     -0.35689133	      0.79936802	      1.13636128	     -0.26658324	      0.80392620	      0.84886803	     -0.15091943	      0.84685293	      0.76272865	     -0.18276397	      0.74503781	      0.69159264	     -0.18091658	      0.90985725	      0.88957731	     -0.47729795	      1.02790973	      0.82256945	     -0.47042311	      1.01988768	      0.71250308	     -0.45235622	      0.67248734	      0.44664800	     -0.22820373	      0.60333552	      0.42152193	     -0.18992293	      0.55768907	      0.30135351	     -0.23882764	      0.46075326	      0.22880081	     -0.22863698	      0.49647326	      0.23372402	     -0.30485363	      1.09444780	      0.49253927	     -0.42371626	      0.99228824	      0.40609233	     -0.44465944	      1.04254193	      0.30652540	     -0.40649349	      0.41069782	      0.25684151	     -0.29597060	      0.53553549	      0.07727937	     -0.27549049	      0.47220225	      0.10556404	     -0.20781090	      0.91778090	      0.17373852	     -0.35573926	      1.13521162	      0.12456320	     -0.38293733	      1.07216995	      0.11232671	     -0.44806089	      0.87240866	      1.61079130	     -0.45343400	      0.94787092	      1.58067487	     -0.15887763	      0.99173685	      1.52616916	     -0.30201053	      0.87822262	      1.61270322	     -0.29919799	      0.78884850	      1.58332470	     -0.43399758	      0.94033532	      1.43055512	     -0.06886826	      0.86810186	      1.37468569	     -0.05103592	      0.89427554	      1.31819643	     -0.01878801	      0.92237397	      1.25312097	     -0.00913820	      0.85157942	      1.23968081	     -0.06998910	      0.75107413	      1.53134489	     -0.48959786	      0.68460957	      1.47571477	     -0.45320837	      0.65477280	      1.44566585	     -0.51550467	      0.61985942	      1.37259413	     -0.54160280	      0.61809840	      1.36060312	     -0.45173958	      0.96477684	      1.22888632	     -0.07030870	      1.05000998	      1.34114839	     -0.21334206	      1.06820459	      1.27561940	     -0.21637394	      0.68518411	      1.30158636	     -0.52483065	      0.85817293	      1.32162290	     -0.50628347	      0.84536713	      1.25528107	     -0.51689137
      1.44000000	     -5.40531009	      1.40744192	      2.55509169	      0.94831230	      1.06315571	     -0.32103925	    -15.57209033	      3.07941248	      1.93545238	    -16.04783497	    -16.72917137	     33.33364196	      7.43012747	      9.47567565	    -35.95342100	      1.57356262	     -1.20438198	      1.01620690	     14.48923148	    -14.97977736	    -15.06482037	      9.90942410	    132.33859289	     95.34417595	    -45.09091588	    -13.29659760	     -7.03015225	    129.60878501	     89.44872744	      0.00000000	      0.00000000	      0.00000000	      0.00000000	      0.00000000	      0.00000000	      0.00000000	      0.00000000	      0.94837498	      1.10863211	     -0.42950699	      0.96773281	      1.09207320	     -0.20410661	      0.79469626	      1.14447986	     -0.35632223	      0.80070013	      1.13987535	     -0.26641357	      0.80373842	      0.85296433	     -0.15105507	      0.84711470	      0.76632365	     -0.18359433	      0.74560031	      0.69519064	     -0.18188368	      0.90663469	      0.88982535	     -0.47583677	      1.02238713	      0.82040771	     -0.47027593	      1.01221845	      0.71021709	     -0.45262543	      0.66694026	      0.45202995	     -0.22975866	      0.59730482	      0.42963775	     -0.19097746	      0.54571364	      0.31208783	     -0.23920827	      0.44540736	      0.24454598	     -0.22866769	      0.48170472	      0.24678010	     -0.30469309	      1.09564819	      0.49001758	     -0.42538406	      1.00213109	      0.39442398	     -0.44527254	      1.06067584	      0.30022098	     -0.40616506	      0.39814813	      0.27456451	     -0.29659341	      0.51501137	      0.08536486	     -0.27250024	      0.45115334	      0.12147006	     -0.20627927	      0.94725847	      0.15884642	     -0.35486104	      1.16818374	      0.12518787	     -0.37827701	      1.10705895	      0.10674906	     -0.44379076	      0.87214469	      1.61349944	     -0.45446436	      0.94777166	      1.58407748	     -0.16068444	      0.99190951	      1.52940330	     -0.30348409	      0.87830439	      1.61551637	     -0.30074525	      0.78869991	      1.58635637	     -0.43436306	      0.94062940	      1.43447769	     -0.07055576	      0.86813177	      1.37938649	     -0.05161649	      0.89416574	      1.32265330	     -0.01959278	      0.92171758	      1.25711222	     -0.00979892	      0.85005396	      1.24431329	     -0.06997470	      0.75057888	      1.53441514	     -0.48894766	      0.68523917	      1.47907319	     -0.45073284	      0.65412895	      1.44826346	     -0.51198406	      0.61857163	      1.37465959	     -0.53666605	      0.61841714	      1.36376591	     -0.44658038	      0.96301706	      1.23308763	     -0.07171302	      1.04632367	      1.34565503	     -0.21567312	      1.06406118	      1.28017714	     -0.21939814	      0.68454524	      1.30408168	     -0.52027272	      0.85770962	      1.32534335	     -0.50469500	      0.84521829	      1.25884194	     -0.51444481
